<svg width="1920" height="153" viewBox="0 0 1920 153" fill="none" xmlns="http://www.w3.org/2000/svg">
<g clip-path="url(#clip0_213_891)">
<path d="M403.252 57.2539H404.282C407.854 57.3318 411.369 58.7722 413.893 61.3223C412.961 62.2761 412.009 63.191 411.097 64.1448C409.679 62.8601 407.971 61.8673 406.107 61.5169C403.35 60.933 400.379 61.4585 398.068 63.0353C395.544 64.6899 393.835 67.493 393.466 70.4907C393.059 73.4495 393.894 76.5641 395.816 78.861C397.66 81.0996 400.476 82.5011 403.388 82.5985C406.107 82.7542 408.942 81.9172 410.922 80.0095C412.475 78.6664 413.194 76.6224 413.427 74.6369C410.204 74.6369 406.981 74.6564 403.757 74.6369V70.627H417.33C418.029 74.9289 417.019 79.7759 413.757 82.8515C411.582 85.0317 408.573 86.3165 405.505 86.5695C402.534 86.8615 399.466 86.297 396.826 84.8565C393.661 83.163 391.136 80.3015 389.894 76.9339C388.729 73.8388 388.709 70.335 389.797 67.2204C390.787 64.3784 392.69 61.8673 395.136 60.1154C397.486 58.3829 400.34 57.4291 403.252 57.2539Z" fill="#A2BDE6"/>
<path d="M481.113 58.2661H485.268V86.0634C483.889 86.0634 482.491 86.0828 481.113 86.0439C481.132 76.7976 481.113 67.5319 481.113 58.2661Z" fill="#A2BDE6"/>
<path d="M426.571 67.9017C429.134 67.415 431.91 67.9601 434.027 69.4979C435.949 70.8605 437.289 73.0017 437.696 75.3376C438.221 78.0434 437.561 81.0022 435.813 83.1435C433.93 85.5378 430.842 86.8225 427.833 86.6278C425.076 86.4721 422.396 85.09 420.765 82.832C418.92 80.3404 418.474 76.9144 419.484 73.9945C420.493 70.8605 423.347 68.4662 426.571 67.9017ZM427.153 71.6002C426.105 71.8727 425.134 72.4762 424.435 73.3327C422.551 75.5907 422.668 79.2697 424.745 81.3721C425.93 82.5789 427.716 83.1435 429.367 82.8125C430.901 82.54 432.24 81.5083 432.978 80.1457C434.26 77.8293 433.891 74.6369 431.93 72.8265C430.668 71.6586 428.823 71.1719 427.153 71.6002Z" fill="#A2BDE6"/>
<path d="M447.153 67.9016C450.085 67.3371 453.289 68.1547 455.483 70.2181C459.055 73.43 459.444 79.4449 456.395 83.1434C454.551 85.4793 451.561 86.7641 448.609 86.6278C445.794 86.55 443.017 85.1484 441.347 82.832C439.464 80.2819 439.056 76.7781 440.124 73.7998C441.192 70.7631 443.988 68.4467 447.153 67.9016ZM447.735 71.6002C446.687 71.8727 445.716 72.4761 445.017 73.3132C443.153 75.5323 443.231 79.1529 445.231 81.2747C446.415 82.54 448.26 83.1629 449.968 82.8125C451.483 82.5205 452.842 81.5083 453.58 80.1457C454.842 77.8098 454.473 74.6174 452.493 72.807C451.23 71.6391 449.386 71.1719 447.735 71.6002Z" fill="#A2BDE6"/>
<path d="M464.609 69.0308C466.842 67.6292 469.813 67.2399 472.221 68.4468C472.978 68.7777 473.599 69.3422 474.201 69.9068C474.22 69.3812 474.201 68.8361 474.22 68.2911C475.521 68.3105 476.822 68.2911 478.143 68.3105V85.4794C478.123 88.0684 477.463 90.8131 475.599 92.7013C473.56 94.7841 470.434 95.4265 467.619 94.9983C464.609 94.5505 461.988 92.3509 460.823 89.5673C461.988 89.0028 463.211 88.5551 464.415 88.0295C465.095 89.6257 466.473 90.9883 468.201 91.2997C469.929 91.6112 471.929 91.1829 473.055 89.7425C474.259 88.2631 474.259 86.2386 474.201 84.4283C473.308 85.3043 472.279 86.0829 471.036 86.3749C468.337 87.134 465.366 86.1997 463.289 84.3699C461.192 82.5401 459.949 79.7175 460.066 76.9145C460.124 73.7415 461.91 70.6854 464.609 69.0308ZM468.628 71.5224C467.444 71.7171 466.337 72.3789 465.58 73.2938C463.755 75.474 463.755 78.9584 465.599 81.0996C466.648 82.3649 468.337 83.0657 469.968 82.8905C471.502 82.7348 472.92 81.7615 473.677 80.4183C474.958 78.1408 474.745 75.0457 473.017 73.0602C471.949 71.8339 470.24 71.2304 468.628 71.5224Z" fill="#A2BDE6"/>
<path d="M490.259 70.0235C492.589 67.8433 496.181 67.1036 499.171 68.2521C502.006 69.3227 503.812 72.0285 504.724 74.8121C500.511 76.564 496.317 78.2965 492.104 80.0484C492.686 81.158 493.579 82.1702 494.783 82.579C496.472 83.1824 498.492 82.9683 499.909 81.8393C500.472 81.411 500.919 80.8465 501.346 80.3015C502.414 81.0217 503.482 81.7225 504.55 82.4427C503.035 84.7202 500.492 86.3164 497.754 86.5695C494.725 86.9393 491.502 85.7714 489.541 83.3966C486.317 79.6591 486.628 73.3911 490.259 70.0235ZM492.337 73.6247C491.676 74.5785 491.405 75.7465 491.424 76.8949C494.239 75.727 497.055 74.559 499.87 73.3716C499.404 72.2815 498.278 71.6197 497.132 71.4445C495.288 71.1136 493.366 72.1063 492.337 73.6247Z" fill="#A2BDE6"/>
<path d="M713.42 75.5041L719.154 90.4538C717.464 90.2162 715.775 89.9184 714.055 89.6502L710.825 81.3899L707.506 88.9684C705.876 88.7002 704.276 88.6108 702.647 88.4026L708.471 75.3263L703.189 61.9238H708.078L711.035 69.412L714.205 61.9238H719.153L713.42 75.5041ZM699.328 61.9238H694.891V87.8386C696.34 87.928 697.848 87.9869 699.328 88.1648V61.9238ZM691.058 87.541C687.015 87.2737 682.97 87.037 678.836 86.9466V61.9239H683.362V82.7269C685.958 82.7859 688.553 82.9933 691.058 83.1121V87.541ZM674.006 72.0586V76.5159H667.819V86.6498H663.354V61.9238H676.029V66.3812H667.82V72.0587H674.007L674.006 72.0586ZM655.748 66.3812V86.8876C654.238 86.8876 652.7 86.8876 651.22 86.9466V66.3812H646.542V61.9238H660.455V66.3812H655.748ZM641.654 76.7528C639.662 76.7528 637.308 76.7528 635.618 76.8432V83.4697C638.274 83.2909 640.929 83.0835 643.615 82.9942V87.2737L631.091 88.2551V61.9238H643.614V66.3812H635.618V72.3848C637.369 72.3848 640.054 72.2955 641.654 72.2955V76.7537L641.654 76.7528ZM616.573 74.2564V89.829C614.945 90.0078 613.495 90.216 611.957 90.4538V61.9238H616.273L622.157 78.1214V61.9238H626.685V88.6108C625.085 88.879 623.455 88.9684 621.735 89.2052L616.573 74.2564Z" fill="#A2BDE6"/>
<path d="M978.483 74.6427V71.9679H975.162V67.8097L975.05 67.8441L971.93 68.7987L971.868 68.8174V71.9681H966.944V70.2128C966.944 69.3956 967.127 68.7701 967.487 68.353C967.845 67.9409 968.356 67.7314 969.009 67.7314C969.478 67.7314 969.963 67.8419 970.452 68.0598L970.575 68.1145V65.2977L970.517 65.2765C970.061 65.1126 969.441 65.03 968.672 65.03C967.703 65.03 966.823 65.2409 966.055 65.6587C965.287 66.0771 964.683 66.6745 964.26 67.4339C963.838 68.1925 963.624 69.0686 963.624 70.0382V71.9679H961.311V74.6427H963.624V85.9109H966.944V74.6427H971.868V81.8034C971.868 84.7526 973.259 86.2471 976.003 86.2471C976.454 86.2471 976.928 86.1943 977.413 86.0908C977.906 85.9846 978.242 85.8785 978.44 85.7653L978.483 85.7394V83.0399L978.348 83.1292C978.168 83.2493 977.944 83.3474 977.681 83.4204C977.416 83.4947 977.196 83.5319 977.025 83.5319C976.382 83.5319 975.907 83.3587 975.612 83.0169C975.313 82.6721 975.162 82.069 975.162 81.2254V74.6427H978.483ZM953.896 83.5323C952.691 83.5323 951.741 83.1327 951.071 82.3456C950.397 81.5545 950.056 80.4266 950.056 78.9936C950.056 77.5152 950.397 76.358 951.071 75.5529C951.741 74.7532 952.682 74.3472 953.869 74.3472C955.02 74.3472 955.937 74.7349 956.593 75.5001C957.253 76.2693 957.588 77.4172 957.588 78.9129C957.588 80.4269 957.273 81.59 956.652 82.368C956.035 83.1401 955.108 83.5323 953.896 83.5323ZM954.044 71.632C951.744 71.632 949.918 72.3057 948.616 73.6344C947.315 74.9633 946.655 76.8022 946.655 79.1006C946.655 81.2836 947.299 83.0396 948.569 84.3189C949.84 85.5986 951.568 86.2468 953.707 86.2468C955.936 86.2468 957.726 85.5637 959.027 84.2166C960.329 82.871 960.988 81.0494 960.988 78.8047C960.988 76.5875 960.369 74.8185 959.149 73.5478C957.927 72.2764 956.209 71.632 954.044 71.632ZM941.302 71.632C939.738 71.632 938.444 72.0321 937.456 72.8208C936.461 73.6143 935.957 74.6549 935.957 75.9141C935.957 76.5687 936.066 77.1501 936.28 77.6433C936.496 78.1381 936.829 78.5737 937.272 78.9393C937.712 79.302 938.391 79.6819 939.291 80.0684C940.047 80.3796 940.611 80.6428 940.969 80.8502C941.319 81.0535 941.568 81.2579 941.708 81.457C941.844 81.6518 941.914 81.9184 941.914 82.2473C941.914 83.1841 941.212 83.6399 939.769 83.6399C939.233 83.6399 938.622 83.5281 937.953 83.3077C937.289 83.0906 936.662 82.7727 936.095 82.3652L935.957 82.2663V85.4629L936.007 85.4865C936.477 85.7033 937.069 85.8862 937.768 86.0301C938.464 86.1741 939.097 86.2474 939.647 86.2474C941.345 86.2474 942.711 85.8454 943.709 85.052C944.712 84.2531 945.221 83.1879 945.221 81.8851C945.221 80.9453 944.947 80.1393 944.407 79.4893C943.871 78.8446 942.941 78.2527 941.643 77.7295C940.61 77.3146 939.947 76.9702 939.674 76.7058C939.411 76.4504 939.277 76.0892 939.277 75.6318C939.277 75.2263 939.442 74.9015 939.781 74.6384C940.123 74.374 940.598 74.2395 941.194 74.2395C941.747 74.2395 942.313 74.3269 942.876 74.4982C943.439 74.6694 943.933 74.8988 944.345 75.1794L944.481 75.2721V72.2398L944.429 72.2174C944.048 72.0543 943.547 71.9147 942.937 71.8014C942.331 71.6888 941.78 71.632 941.302 71.632ZM927.301 83.5323C926.096 83.5323 925.146 83.1327 924.476 82.3456C923.802 81.5545 923.462 80.4269 923.462 78.9936C923.462 77.5152 923.803 76.358 924.477 75.5529C925.146 74.7532 926.087 74.3472 927.274 74.3472C928.425 74.3472 929.342 74.7349 929.998 75.5001C930.658 76.2693 930.993 77.4172 930.993 78.9129C930.993 80.4269 930.678 81.59 930.057 82.368C929.441 83.1401 928.514 83.5323 927.301 83.5323ZM927.449 71.632C925.149 71.632 923.323 72.3057 922.022 73.6344C920.72 74.9633 920.06 76.8022 920.06 79.1006C920.06 81.2845 920.705 83.0396 921.975 84.3189C923.245 85.5986 924.974 86.2468 927.113 86.2468C929.341 86.2468 931.131 85.5637 932.433 84.2166C933.734 82.871 934.394 81.0494 934.394 78.8047C934.394 76.5875 933.775 74.8185 932.554 73.5478C931.332 72.2764 929.615 71.632 927.449 71.632ZM915.02 74.3825V71.9679H911.74V85.9106H915.02V78.7784C915.02 77.5656 915.295 76.5693 915.838 75.8167C916.373 75.0732 917.087 74.6964 917.959 74.6964C918.254 74.6964 918.586 74.7451 918.945 74.8414C919.3 74.9372 919.558 75.0412 919.71 75.1507L919.848 75.2506V71.9441L919.795 71.9213C919.489 71.7915 919.057 71.726 918.51 71.726C917.686 71.726 916.948 71.9909 916.317 72.5123C915.762 72.9706 915.361 73.599 915.055 74.3825H915.02ZM905.867 71.632C904.362 71.632 903.02 71.9547 901.878 72.5907C900.734 73.2282 899.849 74.1383 899.248 75.2956C898.648 76.4501 898.344 77.7987 898.344 79.3026C898.344 80.62 898.639 81.8289 899.222 82.8944C899.805 83.9616 900.631 84.7966 901.676 85.3757C902.72 85.954 903.926 86.2472 905.262 86.2472C906.821 86.2472 908.152 85.9356 909.219 85.3211L909.262 85.2964V82.2916L909.124 82.3922C908.641 82.7443 908.1 83.0253 907.519 83.2278C906.94 83.4301 906.411 83.5323 905.948 83.5323C904.661 83.5323 903.627 83.1296 902.878 82.3357C902.126 81.5408 901.745 80.4246 901.745 79.02C901.745 77.6065 902.142 76.4616 902.925 75.6168C903.706 74.7745 904.741 74.3472 906.002 74.3472C907.08 74.3472 908.13 74.7123 909.124 75.4332L909.262 75.5331V72.3671L909.217 72.3421C908.843 72.1327 908.333 71.9598 907.7 71.8287C907.069 71.6979 906.453 71.632 905.867 71.632ZM896.085 71.9681H892.805V85.9106H896.085V71.9681ZM894.479 66.0284C893.939 66.0284 893.468 66.2122 893.081 66.5763C892.693 66.9415 892.496 67.4013 892.496 67.9439C892.496 68.4779 892.69 68.9293 893.075 69.2848C893.457 69.6392 893.93 69.8188 894.479 69.8188C895.028 69.8188 895.502 69.6392 895.889 69.2854C896.278 68.9293 896.475 68.4781 896.475 67.9439C896.475 67.4202 896.283 66.9652 895.905 66.591C895.526 66.2176 895.046 66.0284 894.479 66.0284ZM886.295 70.9394V85.9106H889.642V66.4552H885.01L879.121 80.9061L873.407 66.4552H868.585V85.9105H871.731V70.9379H871.839L877.873 85.9106H880.247L886.187 70.9394H886.295Z" fill="#A2BDE6"/>
<path d="M841.817 75.3827H826.388V59.9539H841.817V75.3827Z" fill="#A2BDE6"/>
<path d="M858.854 75.3827H843.425V59.9539H858.854V75.3827Z" fill="#A2BDE6"/>
<path d="M841.816 92.4238H826.387V76.9951H841.816V92.4238Z" fill="#A2BDE6"/>
<path d="M858.854 92.4238H843.425V76.9951H858.854V92.4238Z" fill="#A2BDE6"/>
<path d="M1157.97 86.1904V71.6441L1152.24 86.1904H1150.36L1144.63 71.6467V86.1904H1140.31V66.0205H1146.37L1151.3 78.6288L1156.23 66.0205H1162.32V86.1904H1157.97Z" fill="#A2BDE6"/>
<path d="M1174.74 86.1902V84.6457C1173.73 85.8548 1172 86.55 1170.08 86.55C1167.73 86.55 1164.99 84.9777 1164.99 81.7126C1164.99 78.2655 1167.73 76.9957 1170.08 76.9957C1172.06 76.9957 1173.76 77.6306 1174.74 78.7799V76.9352C1174.74 75.4537 1173.46 74.486 1171.51 74.486C1169.96 74.486 1168.5 75.0912 1167.28 76.2075L1165.75 73.5167C1167.55 71.9142 1169.86 71.2183 1172.18 71.2183C1175.56 71.2183 1178.63 72.5485 1178.63 76.7511V86.1902H1174.74ZM1174.74 82.6823V80.8662C1174.1 80.0193 1172.88 79.5659 1171.63 79.5659C1170.11 79.5659 1168.86 80.3821 1168.86 81.7731C1168.86 83.1646 1170.11 83.9501 1171.63 83.9501C1172.88 83.9501 1174.1 83.5265 1174.74 82.6797V82.6823Z" fill="#A2BDE6"/>
<path d="M1181.75 86.1904V71.5835H1185.61V86.1904H1181.75Z" fill="#A2BDE6"/>
<path d="M1188.81 86.1904V66.0205H1192.68V86.1904H1188.81Z" fill="#A2BDE6"/>
<path d="M1196.12 86.1904V66.0205H1206.81C1210.67 66.0205 1212.65 68.4723 1212.65 71.1605C1212.65 73.6702 1211.07 75.3933 1209.15 75.7867C1211.34 76.119 1213.05 78.2051 1213.05 80.715C1213.05 83.7687 1211.04 86.1878 1207.14 86.1878L1196.12 86.1904ZM1208.24 71.919C1208.24 70.6795 1207.32 69.8026 1205.86 69.8026H1200.44V74.0354H1205.86C1207.32 74.0354 1208.24 73.219 1208.24 71.919H1208.24ZM1208.63 80.1128C1208.63 78.8432 1207.72 77.8149 1206.05 77.8149H1200.44V82.4109H1206.04C1207.66 82.4109 1208.63 81.5641 1208.63 80.1128H1208.63Z" fill="#A2BDE6"/>
<path d="M1215.85 86.1904V66.0205H1219.72V86.1904H1215.85Z" fill="#A2BDE6"/>
<path d="M1232.8 86.1904V84.3429C1231.8 85.4317 1230.03 86.5501 1227.63 86.5501C1224.4 86.5501 1222.88 84.7967 1222.88 81.9544V71.5835H1226.75V80.4423C1226.75 82.4688 1227.81 83.1337 1229.45 83.1337C1230.95 83.1337 1232.13 82.3175 1232.8 81.4707V71.5835H1236.67V86.1904H1232.8Z" fill="#A2BDE6"/>
<path d="M1238.76 84.2827L1240.44 81.5035C1241.53 82.5319 1243.69 83.5292 1245.52 83.5292C1247.19 83.5292 1247.99 82.8942 1247.99 81.9873C1247.99 79.5992 1239.28 81.564 1239.28 75.8195C1239.28 73.3677 1241.41 71.2236 1245.31 71.2236C1247.78 71.2236 1249.75 72.0703 1251.21 73.219L1249.66 75.9405C1248.78 75.0334 1247.1 74.2472 1245.31 74.2472C1243.91 74.2472 1243 74.8518 1243 75.6682C1243 77.8149 1251.73 76.0005 1251.73 81.8965C1251.73 84.5879 1249.42 86.5527 1245.34 86.5527C1242.78 86.5501 1240.31 85.7037 1238.76 84.2827Z" fill="#A2BDE6"/>
<path d="M1255.02 82.5293V74.9399H1252.58V71.5835H1255.02V67.5928H1258.88V71.5835H1261.87V74.9399H1258.88V81.5035C1258.88 82.4426 1259.37 83.1363 1260.22 83.1363C1260.8 83.1363 1261.35 82.9245 1261.56 82.6824L1262.38 85.6166C1261.81 86.1309 1260.77 86.5553 1259.16 86.5553C1256.45 86.5501 1255.02 85.1594 1255.02 82.5293Z" fill="#A2BDE6"/>
<path d="M1262.97 78.8705C1262.97 74.6371 1266.14 71.2207 1270.59 71.2207C1275 71.2207 1277.95 74.4858 1277.95 79.2329V80.1387H1267.02C1267.3 81.9224 1268.76 83.4039 1271.26 83.4039C1272.5 83.4039 1274.21 82.8899 1275.15 81.9829L1276.89 84.5226C1275.42 85.8532 1273.11 86.5483 1270.83 86.5483C1266.35 86.5498 1262.97 83.5566 1262.97 78.8705ZM1270.59 74.3653C1268.18 74.3653 1267.15 76.0279 1266.99 77.4792H1274.24C1274.12 76.0884 1273.14 74.3653 1270.59 74.3653Z" fill="#A2BDE6"/>
<path d="M1280.21 86.1901V71.5833H1284.08V73.5489C1285.14 72.2787 1286.94 71.2207 1288.77 71.2207V74.97C1288.49 74.9094 1288.16 74.8792 1287.7 74.8792C1286.42 74.8792 1284.72 75.6048 1284.08 76.5422V86.1901H1280.21Z" fill="#A2BDE6"/>
<path fill-rule="evenodd" clip-rule="evenodd" d="M1106.1 95.817C1112.71 95.6044 1119.05 92.1102 1122.6 86.009C1128.05 76.6196 1124.82 64.614 1115.36 59.1929C1105.91 53.7718 1093.82 56.9892 1088.37 66.378C1084.82 72.476 1084.95 79.6846 1088.06 85.4732C1088.84 86.9127 1090.9 86.9536 1091.72 85.5397L1094.01 81.6067C1094.01 81.5926 1094.02 81.5783 1094.03 81.565C1094.1 81.4546 1094.2 81.3594 1094.31 81.2845C1094.41 81.21 1094.54 81.1572 1094.67 81.1296C1094.79 81.1019 1094.93 81.0997 1095.06 81.1229C1095.19 81.1465 1095.31 81.1952 1095.42 81.2665C1095.64 81.4115 1095.79 81.6332 1095.85 81.886C1095.91 82.1391 1095.86 82.4044 1095.73 82.6276L1092.27 88.5775C1092.03 88.9978 1091.94 89.49 1092.02 89.9686C1092.11 90.4472 1092.36 90.8814 1092.73 91.1954L1092.77 91.2279C1093 91.4205 1093.28 91.56 1093.57 91.6368C1093.86 91.7131 1094.17 91.7249 1094.47 91.6714C1094.77 91.6179 1095.05 91.4999 1095.3 91.3261C1095.55 91.1519 1095.76 90.9265 1095.91 90.6645L1101.12 81.7044C1101.13 81.6904 1101.14 81.6764 1101.15 81.6627C1101.29 81.4403 1101.52 81.2838 1101.78 81.2277C1102.04 81.172 1102.31 81.2211 1102.54 81.365C1102.75 81.5093 1102.91 81.731 1102.96 81.9838C1103.02 82.2369 1102.98 82.5026 1102.85 82.7262L1097.65 91.6637C1097.59 91.7663 1097.54 91.8736 1097.5 91.9843C1097.31 92.4998 1097.33 93.0699 1097.56 93.5691C1097.79 94.0684 1098.21 94.4558 1098.73 94.6462L1098.78 94.6635C1099.24 94.8274 1099.74 94.8251 1100.2 94.6573C1100.66 94.4894 1101.05 94.1665 1101.29 93.7451L1104.76 87.7724L1104.79 87.7311C1104.86 87.6207 1104.95 87.5255 1105.06 87.4506C1105.17 87.3757 1105.29 87.323 1105.42 87.2953C1105.55 87.2676 1105.68 87.2654 1105.81 87.2886C1105.94 87.3123 1106.07 87.361 1106.18 87.4318C1106.4 87.5765 1106.55 87.7986 1106.61 88.0521C1106.67 88.3059 1106.62 88.572 1106.49 88.7959L1104.22 92.7042C1103.4 94.1174 1104.46 95.8694 1106.1 95.817ZM1105 78.3174C1105.98 83.3125 1109.48 87.1182 1111.6 89.021C1111.75 89.1502 1111.93 89.2343 1112.12 89.2635C1112.31 89.293 1112.5 89.266 1112.68 89.1863C1112.85 89.107 1113 88.9779 1113.11 88.8148C1113.21 88.6517 1113.27 88.4616 1113.27 88.2672V64.1112C1113.27 63.9342 1113.22 63.7604 1113.13 63.6071C1113.05 63.4538 1112.92 63.3265 1112.77 63.2379C1112.62 63.1494 1112.44 63.1027 1112.27 63.1027C1112.09 63.1026 1111.92 63.1491 1111.77 63.2375L1091.01 75.3161C1090.84 75.4133 1090.71 75.5571 1090.62 75.7301C1090.53 75.9032 1090.49 76.0982 1090.51 76.2916C1090.53 76.485 1090.61 76.6686 1090.73 76.8202C1090.85 76.9717 1091.01 77.0849 1091.19 77.146C1093.89 78.043 1098.91 79.2005 1103.69 77.5562C1103.74 77.5408 1103.78 77.5288 1103.83 77.5202C1103.96 77.4949 1104.09 77.4954 1104.22 77.5217C1104.35 77.5481 1104.47 77.5998 1104.58 77.6738C1104.69 77.7478 1104.78 77.8428 1104.85 77.9532C1104.92 78.0636 1104.97 78.1874 1105 78.3174Z" fill="#A2BDE6"/>
<path d="M1185.34 70.2742C1184.99 69.9612 1184.4 69.3352 1184.24 68.5177C1184.23 68.4963 1184.23 68.4759 1184.21 68.4577C1184.2 68.4396 1184.19 68.424 1184.17 68.4118C1184.15 68.3997 1184.13 68.3913 1184.11 68.3871C1184.09 68.3829 1184.06 68.383 1184.04 68.3873C1184.03 68.3885 1184.03 68.3903 1184.02 68.3925C1183.22 68.6627 1182.39 68.4728 1181.94 68.3257C1181.9 68.3118 1181.86 68.282 1181.84 68.2429C1181.82 68.2038 1181.82 68.1586 1181.83 68.1171C1181.85 68.0785 1181.87 68.0459 1181.91 68.0253L1185.37 66.0429C1185.39 66.0321 1185.41 66.0251 1185.43 66.0223C1185.45 66.0196 1185.47 66.0211 1185.49 66.0268C1185.51 66.0325 1185.53 66.0423 1185.55 66.0556C1185.57 66.069 1185.58 66.0855 1185.59 66.1045C1185.61 66.1293 1185.62 66.1576 1185.62 66.1864V70.151C1185.62 70.1829 1185.61 70.2141 1185.59 70.2409C1185.57 70.2676 1185.55 70.2887 1185.52 70.3017C1185.49 70.3147 1185.46 70.319 1185.42 70.3142C1185.39 70.3093 1185.36 70.2954 1185.34 70.2742H1185.34Z" fill="#A2BDE6"/>
<g clip-path="url(#clip1_213_891)">
<path d="M1452.62 77.0156C1448.59 77.0156 1446.58 75.0626 1446.58 71.1569V65.6771H1444.48L1443.26 62.3834H1446.58V58.186H1450.98V62.3834H1455.21V65.6771H1450.98V70.982C1450.98 71.7982 1451.17 72.4102 1451.54 72.8182C1451.93 73.2263 1452.54 73.4304 1453.37 73.4304C1453.78 73.4304 1454.22 73.3688 1454.61 73.2538L1455.73 76.316C1455.33 76.5298 1454.84 76.6949 1454.28 76.8115C1453.71 76.9476 1453.16 77.0156 1452.62 77.0156Z" fill="#A2BDE6"/>
<path d="M1457.38 76.6949V58.0725H1461.78V64.3362C1462.28 63.5978 1462.93 63.044 1463.73 62.6748C1464.53 62.2861 1465.41 62.0918 1466.38 62.0918C1469.74 62.0918 1471.43 64.0933 1471.43 68.0963V76.6949H1467.02V68.3003C1467.02 67.3093 1466.84 66.6 1466.47 66.1725C1466.1 65.7256 1465.56 65.5021 1464.84 65.5021C1463.91 65.5021 1463.16 65.7936 1462.59 66.3766C1462.05 66.9595 1461.78 67.7368 1461.78 68.7084V76.6949H1457.38Z" fill="#A2BDE6"/>
<path d="M1482.14 77.0155C1480.45 77.0155 1479 76.7143 1477.77 76.1119C1476.57 75.4901 1475.63 74.6254 1474.97 73.5177C1474.33 72.3907 1474.01 71.0694 1474.01 69.5537C1474.01 68.0769 1474.32 66.7846 1474.94 65.677C1475.59 64.5499 1476.45 63.6755 1477.54 63.0537C1478.65 62.4124 1479.92 62.0918 1481.36 62.0918C1483.44 62.0918 1485.09 62.7525 1486.31 64.0739C1487.54 65.3758 1488.15 67.1441 1488.15 69.3788V70.4864H1478.21C1478.36 71.6135 1478.77 72.4392 1479.43 72.9639C1480.11 73.4691 1481.05 73.7218 1482.23 73.7218C1483.01 73.7218 1483.8 73.6052 1484.59 73.372C1485.39 73.1388 1486.11 72.7793 1486.75 72.2935L1487.91 75.2375C1487.2 75.7816 1486.31 76.2188 1485.26 76.5491C1484.23 76.86 1483.19 77.0155 1482.14 77.0155ZM1481.53 65.0066C1480.6 65.0066 1479.84 65.2884 1479.26 65.8519C1478.69 66.4154 1478.34 67.2024 1478.21 68.2129H1484.5C1484.39 66.0754 1483.4 65.0066 1481.53 65.0066Z" fill="#A2BDE6"/>
<path d="M1490.77 76.6949V62.3833H1495.08V64.4528C1495.51 63.7144 1496.09 63.1411 1496.83 62.7331C1497.59 62.3055 1498.46 62.0918 1499.45 62.0918C1500.46 62.0918 1501.32 62.3153 1502.02 62.7622C1502.74 63.2091 1503.28 63.8893 1503.65 64.8026C1504.1 63.9476 1504.74 63.2869 1505.57 62.8205C1506.43 62.3347 1507.37 62.0918 1508.4 62.0918C1510.03 62.0918 1511.25 62.5873 1512.04 63.5783C1512.84 64.5499 1513.24 66.0559 1513.24 68.0963V76.6949H1508.84V68.242C1508.84 67.2899 1508.68 66.6 1508.37 66.1725C1508.08 65.7256 1507.58 65.5021 1506.86 65.5021C1506.02 65.5021 1505.37 65.7936 1504.9 66.3766C1504.44 66.9595 1504.2 67.7854 1504.2 68.8541V76.6949H1499.8V68.242C1499.8 67.2899 1499.65 66.6 1499.34 66.1725C1499.03 65.7256 1498.52 65.5021 1497.82 65.5021C1496.98 65.5021 1496.33 65.7936 1495.87 66.3766C1495.4 66.9595 1495.17 67.7854 1495.17 68.8541V76.6949H1490.77Z" fill="#A2BDE6"/>
<path d="M1523.64 77.0155C1521.95 77.0155 1520.49 76.7143 1519.27 76.1119C1518.06 75.4901 1517.13 74.6254 1516.47 73.5177C1515.83 72.3907 1515.51 71.0694 1515.51 69.5537C1515.51 68.0769 1515.82 66.7846 1516.44 65.677C1517.08 64.5499 1517.95 63.6755 1519.03 63.0537C1520.14 62.4124 1521.41 62.0918 1522.85 62.0918C1524.93 62.0918 1526.58 62.7525 1527.81 64.0739C1529.03 65.3758 1529.64 67.1441 1529.64 69.3788V70.4864H1519.7C1519.86 71.6135 1520.27 72.4392 1520.93 72.9639C1521.61 73.4691 1522.54 73.7218 1523.73 73.7218C1524.5 73.7218 1525.29 73.6052 1526.09 73.372C1526.88 73.1388 1527.6 72.7793 1528.24 72.2935L1529.41 75.2375C1528.69 75.7816 1527.81 76.2188 1526.76 76.5491C1525.73 76.86 1524.69 77.0155 1523.64 77.0155ZM1523.03 65.0066C1522.09 65.0066 1521.34 65.2884 1520.75 65.8519C1520.19 66.4154 1519.84 67.2024 1519.7 68.2129H1526C1525.88 66.0754 1524.89 65.0066 1523.03 65.0066Z" fill="#A2BDE6"/>
<path d="M1448.99 93.3805L1443.16 79.0688H1447.62L1451.03 88.2505L1454.44 79.0688H1457.36L1460.77 88.3671L1464.18 79.0688H1468.41L1462.63 93.3805H1458.9L1455.76 85.2482L1452.69 93.3805H1448.99Z" fill="#A2BDE6"/>
<path d="M1473.99 93.761C1472.93 93.761 1471.98 93.5569 1471.17 93.1488C1470.35 92.7408 1469.7 92.187 1469.21 91.4874C1468.75 90.7879 1468.51 90.0009 1468.51 89.1264C1468.51 88.0965 1468.79 87.2707 1469.33 86.6488C1469.87 86.027 1470.76 85.5898 1471.98 85.3372C1473.21 85.0651 1474.83 84.9291 1476.85 84.9291H1477.9V84.4336C1477.9 83.5786 1477.71 82.9762 1477.32 82.6264C1476.93 82.2572 1476.27 82.0726 1475.33 82.0726C1474.56 82.0726 1473.73 82.1989 1472.86 82.4515C1472 82.6847 1471.15 83.0442 1470.29 83.53L1469.1 80.586C1469.6 80.2557 1470.21 79.9545 1470.93 79.6825C1471.67 79.4104 1472.44 79.2064 1473.24 79.0703C1474.03 78.9149 1474.79 78.8372 1475.51 78.8372C1477.72 78.8372 1479.38 79.3424 1480.46 80.3529C1481.55 81.3439 1482.1 82.8887 1482.1 84.9874V93.4403H1477.99V91.2834C1477.7 92.0412 1477.2 92.6436 1476.5 93.0905C1475.82 93.5375 1474.99 93.761 1473.99 93.761ZM1474.99 90.817C1475.8 90.817 1476.49 90.5352 1477.05 89.9717C1477.62 89.4082 1477.9 88.6795 1477.9 87.7856V87.2026H1476.88C1475.38 87.2026 1474.32 87.3387 1473.7 87.6107C1473.08 87.8633 1472.77 88.3103 1472.77 88.9515C1472.77 89.4956 1472.95 89.9426 1473.32 90.2923C1473.71 90.6421 1474.27 90.817 1474.99 90.817Z" fill="#A2BDE6"/>
<path d="M1491.92 93.7609C1490.24 93.7609 1488.81 93.4481 1487.63 92.8227C1486.46 92.1972 1485.4 91.4161 1484.68 90.2582C1483.93 89.0528 1483.77 87.7564 1483.77 86.2552C1483.77 84.6984 1483.97 83.2423 1484.78 82.095C1485.62 80.9116 1486.59 80.1673 1487.79 79.5419C1489 78.9164 1490.53 78.8662 1492.17 78.8662C1493.06 78.8662 1494.15 78.8917 1495.08 79.1698C1496.01 79.4478 1496.7 79.6759 1497.39 80.1048L1496.22 83.0654C1495.15 82.3686 1493.69 82.095 1492.17 82.095C1490.85 82.095 1489.76 82.5688 1489.07 83.3194C1488.39 84.0699 1488.02 84.8375 1488.02 86.2552C1488.02 87.673 1488.52 88.6691 1489.21 89.3919C1489.91 90.1145 1490.79 90.5501 1492.15 90.5501C1492.79 90.5501 1493.51 90.4528 1494.3 90.2582V87.944H1491.36V85.2545H1497.43V92.635C1496.65 92.9963 1495.78 93.2745 1494.82 93.469C1493.86 93.6635 1492.9 93.7609 1491.92 93.7609Z" fill="#A2BDE6"/>
<path d="M1506.62 93.761C1505.09 93.761 1503.74 93.4598 1502.6 92.8574C1501.47 92.2355 1500.6 91.3708 1499.97 90.2632C1499.35 89.1361 1499.04 87.805 1499.04 86.2699C1499.04 84.7542 1499.35 83.4425 1499.97 82.3349C1500.6 81.2079 1501.47 80.3431 1502.6 79.7407C1503.74 79.1384 1505.09 78.8372 1506.62 78.8372C1508.16 78.8372 1509.49 79.1384 1510.61 79.7407C1511.76 80.3431 1512.64 81.2079 1513.27 82.3349C1513.91 83.4425 1514.23 84.7542 1514.23 86.2699C1514.23 87.805 1513.91 89.1361 1513.27 90.2632C1512.64 91.3708 1511.76 92.2355 1510.61 92.8574C1509.49 93.4598 1508.16 93.761 1506.62 93.761ZM1506.62 90.4672C1507.55 90.4672 1508.31 90.1272 1508.89 89.447C1509.5 88.7669 1509.8 87.7079 1509.8 86.2699C1509.8 84.8514 1509.5 83.8118 1508.89 83.1511C1508.31 82.4709 1507.55 82.1309 1506.62 82.1309C1505.69 82.1309 1504.93 82.4709 1504.35 83.1511C1503.76 83.8118 1503.47 84.8514 1503.47 86.2699C1503.47 87.7079 1503.76 88.7669 1504.35 89.447C1504.93 90.1272 1505.69 90.4672 1506.62 90.4672Z" fill="#A2BDE6"/>
<path d="M1515.89 93.4403V79.1286H1520.21V81.2273C1520.69 80.45 1521.34 79.8573 1522.16 79.4493C1522.98 79.0412 1523.89 78.8372 1524.9 78.8372C1526.59 78.8372 1527.85 79.3327 1528.69 80.3237C1529.53 81.2953 1529.94 82.8013 1529.94 84.8417V93.4403H1525.54V85.0457C1525.54 84.0547 1525.36 83.3454 1524.99 82.9179C1524.62 82.4709 1524.07 82.2475 1523.36 82.2475C1522.42 82.2475 1521.68 82.539 1521.11 83.1219C1520.57 83.7049 1520.3 84.4822 1520.3 85.4538V93.4403H1515.89Z" fill="#A2BDE6"/>
<path d="M1439.49 77.7289C1439.49 73.9779 1438.37 70.1912 1435.67 67.591C1433.73 65.7308 1431.79 64.4731 1428.71 62.7807C1423.94 60.1716 1417.62 58.8706 1417.62 58.8706C1420.9 58.1893 1423.7 58.8416 1423.82 58.8688C1414.26 54.1923 1407.42 57.4591 1407.42 57.4591L1402.81 54.1162C1401.91 55.6998 1402.49 58.3289 1402.83 59.5084C1402.95 59.9143 1402.89 60.3582 1402.66 60.7061L1399.79 65.1307C1399.68 65.3047 1399.6 65.5185 1399.6 65.7504L1399.52 68.4555C1398.01 70.5809 1397.23 72.6683 1396.83 74.2917C1396.45 74.3696 1396.12 74.7374 1396.03 75.2194C1395.93 75.7412 1396.1 76.225 1396.47 76.4369C1396.41 77.0567 1396.43 77.4045 1396.43 77.4045L1398.93 81.5392C1399.37 82.177 1400.17 82.4289 1400.9 82.1192L1403.71 80.9595C1404.17 80.7656 1404.45 80.3217 1404.45 79.8197V77.3646C1404.45 77.0948 1404.55 76.8428 1404.72 76.649C1405.24 76.0511 1406.6 74.9113 1409.54 74.9113C1413.51 74.9113 1414.55 70.2149 1414.22 68.2816C1414.22 68.2816 1415.75 72.8821 1412.96 75.3932C1411.76 76.4768 1411.6 78.3303 1412.54 79.664C1414.47 82.6807 1414.63 94.6429 1401.77 95.2987C1406.11 98.4497 1411.45 100.307 1417.23 100.307C1420.22 100.307 1423.57 99.5385 1425.77 98.8936C1430.06 97.2067 1432.46 95.2987 1434.8 92.744C1438.4 88.8177 1438.89 83.9146 1438 79.7037C1435.93 69.925 1423.24 61.0539 1410.63 59.1605C1416.84 60.0882 1427.45 62.1392 1434.68 70.1189C1436.75 72.3981 1439.49 77.7289 1439.49 77.7289ZM1401.95 69.0154C1400.98 66.852 1404.28 66.5621 1404.28 66.5621C1403.82 70.021 1401.95 69.0154 1401.95 69.0154Z" fill="#A2BDE6"/>
<path d="M1407.82 56.4428C1409.45 55.9046 1410.32 55.6763 1411.81 55.3846L1406.66 52C1406.16 52.424 1405.39 54.3283 1406.02 55.1744L1407.82 56.4428Z" fill="#A2BDE6"/>
</g>
<path d="M390 152H1530" stroke="url(#paint0_linear_213_891)" stroke-opacity="0.4"/>
<path d="M390 0H1530" stroke="url(#paint1_linear_213_891)" stroke-opacity="0.4"/>
</g>
<defs>
<linearGradient id="paint0_linear_213_891" x1="1386" y1="153.015" x2="390" y2="153.015" gradientUnits="userSpaceOnUse">
<stop stop-color="#4E92F9" stop-opacity="0"/>
<stop offset="0.473958" stop-color="#C381DB"/>
<stop offset="1" stop-color="#4E92F9" stop-opacity="0"/>
</linearGradient>
<linearGradient id="paint1_linear_213_891" x1="1386" y1="1.01516" x2="390" y2="1.01516" gradientUnits="userSpaceOnUse">
<stop stop-color="#4E92F9" stop-opacity="0"/>
<stop offset="0.473958" stop-color="#C381DB"/>
<stop offset="1" stop-color="#4E92F9" stop-opacity="0"/>
</linearGradient>
<clipPath id="clip0_213_891">
<rect width="1920" height="153" fill="white"/>
</clipPath>
<clipPath id="clip1_213_891">
<rect width="134" height="48.3776" fill="white" transform="translate(1396 52)"/>
</clipPath>
</defs>
</svg>
